<?xml version="1.0" encoding="UTF-8"?><svg id="b" xmlns="http://www.w3.org/2000/svg" width="300" height="300" viewBox="0 0 300 300"><defs><style>.d{fill-rule:evenodd;}.d,.e{fill:#ffce00;}.f{fill:#7c7c7c;}</style></defs><g id="c"><path class="f" d="m257.13,247.84c22.54-25.67,39.9-59.27,37.31-106.05-2.41-43.64-22.81-75.7-46.78-98.61C224.62,21.13,185.92,1.23,140.46,4.99c-45.01,3.73-76.16,22.41-98.29,47.73C20.51,77.5,2.42,113.45,4.86,159.82c2.25,42.74,22.8,74.85,47.82,97.56,24.68,22.39,61.4,41.32,106.69,37.64,41.35-3.36,74.84-21.11,97.76-47.19Z"/><path class="e" d="m299.71,140.2c-1.27-21.85-8.53-42.24-16.82-57.79-.86-1.62-1.75-3.23-2.66-4.83-3.65-6.42-7.65-12.65-12.05-18.6C243.14,25.1,205.51.18,150.26,0c-.26,0-.52,0-.78,0-2.96,0-5.96.07-9.02.22-22.92,1.11-42.62,7.02-59.39,15.91-17.14,9.08-30.56,19.91-42.05,32.87C16.08,74.89-1.66,108.25.12,160.35c.75,21.73,7.75,42.02,16.3,58.32,20.92,39.91,59.55,72.91,113.34,79.94,6.6.86,13.42,1.34,20.47,1.38,3.18.02,6.4-.05,9.67-.2,43.5-2.07,79.31-23.97,100.91-48.24,23.44-26.37,41.75-62.23,38.89-111.35Zm-247.02,117.18c-25.02-22.72-45.57-54.83-47.82-97.56-2.44-46.36,15.65-82.32,37.31-107.1C64.3,27.4,95.44,8.72,140.46,4.99c45.46-3.76,84.17,16.14,107.21,38.18,23.97,22.91,44.37,54.97,46.78,98.61,2.59,46.78-14.77,80.39-37.31,106.05-22.92,26.08-56.41,43.83-97.76,47.19-45.29,3.68-82.01-15.25-106.69-37.64Z"/><path class="d" d="m146.76,8.7c44.02-.58,77.88,17.53,100.91,40.3,22.24,22,42.37,55.25,43.1,97.57.78,45.48-16.38,76.74-39.42,101.28-22.86,24.32-54.03,41.3-97.23,43.48-43.91,2.2-79.04-18.92-101.44-39.77-24.76-23.06-42.32-53.93-44.15-97.56-1.89-45.21,18.27-79.1,39.94-101.8,11.09-11.61,23.94-22.31,40.47-30.22,15.34-7.34,36.37-12.97,57.81-13.26Zm-26.27,7.43c-29.5,6.7-54.55,22.76-72.01,42.95-19.6,22.67-38.2,56.43-34.69,102.34,4.36,57.02,44.34,100.49,88.3,116.65,27.9,10.26,57.96,11.04,85.15,3.18,49.18-14.21,87.56-53.74,96.7-108.7,4.91-29.52-.81-60.8-13.66-85.37-11.76-22.47-27.24-39.35-49.41-53.02-21.16-13.05-48.09-22.78-81.46-20.15-6.63.53-13.07.79-18.92,2.12Z"/><path class="d" d="m140.46,63.32c30.39-3.67,57.91,10.47,73.06,26.51,16.38,17.35,27.84,45.45,24.18,74.23-2.29,17.93-10.92,33.52-20.5,44.54-15.9,18.29-41.42,32.85-74.11,30.22-42.28-3.4-77.41-36.62-80.94-80.59-2.64-32.91,12.17-57.02,28.38-72.11,12.14-11.3,29.16-20.29,49.93-22.8Zm-24.7,15.9c-1.31,5.57,5.18,13.67,7.88,18.56,3.51,6.36,5.95,12.02,9.99,16.44,6.28-13.29,12.7-29.25,14.72-45.07-9.98,1.31-30.78,2.39-32.59,10.07Zm49.4,35c4.53-4.66,7.42-10.81,10.51-16.44,3.15-5.74,7.3-11.96,7.36-20.15-7.72-6-19.98-7.42-32.58-8.48,2.6,17.34,9.48,30.38,14.71,45.07Zm-44.14-10.6c-3.02-5.13-6.51-14.33-9.98-16.44-8.53-5.16-25.98,8.63-23.65,18.56,1.2,5.16,12.29,12.18,16.81,15.38,7.2,5.08,13.13,8.31,20.5,11.66,10.69-10.85,2.62-18.48-3.68-29.16Zm75.15,15.91c4.66-3.35,16.06-10.65,16.29-16.97.32-8.39-13.51-18.95-22.59-16.44-4.72,1.31-8.3,10.33-12.09,16.96-7.25,12.71-13.33,19.3-2.1,29.16,7.12-3.9,13.2-7.48,20.5-12.72Zm-62.02,11.66c-1.16,1.44-1.74.15-3.15,1.06-1.09,5.74-4.52,10.94-3.68,16.97-2.37.09-1.3-3.28-4.21-2.65-2.39,9.65-10.67,14.46-9.98,25.98.87,14.54,20.4,23.9,36.26,24.92,16.43,1.06,38.8-11.9,38.37-27.04-.39-13.51-12.27-15.24-13.67-29.69-3.22.28-2.68,4.36-5.78,4.77-.43-4.5.09-6.45,0-12.19-2.22-5.46-7.86-9.09-10.51-14.85-1.52-3.3-.84-7.08-2.1-10.6-.77-2.15-2.95-3.73-3.68-5.83-1.27-3.7-.26-7.05-2.63-10.08-2.77,15.41-10.03,26.3-15.24,39.24Zm85.67-18.56c-6.57-2.55-17.91,7.99-24.18,12.2-7.14,4.79-14.38,9.34-17.87,13.25,1.74,5.5,8.17,2.52,12.09,2.12,12.13-1.22,26.89-1.55,37.32-5.3,2.26-8.25-1.82-20.12-7.36-22.27Zm-116.68,12.2c-6.52-4.29-13.72-10.88-19.97-11.66-8.18-1.02-11.07,12.04-11.56,20.68,1.85,3.67,8.44,4.69,14.71,5.3,3.43.33,7.59.71,11.57,1.06,9.91.87,23.11,4.35,24.18-2.65-4.79-3.21-11.52-7.85-18.92-12.73Zm92.5,36.05c4.46,4.25,11.11,10.66,17.87,11.13,5.51.4,11.69-2.43,13.66-4.24,9.28-8.47,2.57-26.99-8.93-24.38-10.61,2.39-26.36-2.43-35.22,1.06,3.2,6.14,7.24,11.31,12.61,16.43Zm-106.69-16.43c-6.07-.27-11.28-2.15-15.77,1.59-11.78,9.82-1.29,28.54,14.19,27.04,7.32-.71,13.97-8.27,18.39-12.73,4.45-4.49,8.88-9.29,11.04-15.38-8.69-1.24-19.04-.14-27.85-.53Zm114.58,29.17c-.62.26-1.19.56-1.58,1.05-9.99,17.02-25.66,30.47-50.46,30.76-26.43.31-42.55-14.97-54.13-30.76-9.31,2.33-16.58.87-25.23.53.58,2.25,1.29,4.35,2.1,6.37,5.94,2.6,15.34-.36,21.55,1.06,13.82,15.49,29.82,29.05,55.71,28.63,19.77-.32,35.02-8.94,45.73-19.62,2.92-2.92,5.46-9.46,9.46-10.61,5.22-1.5,14.59,2.58,18.92,0,1.36-1.81,2.26-4.08,2.63-6.89-8.05.48-15.93,1.87-24.7-.53Zm-126.67,12.19c-.35,7.08,6.92,6.46,13.67,6.37,13.77,15.27,32.21,30.22,59.92,30.22s48.31-14.76,61.49-31.81c6.09.3,12.16.6,12.09-5.3h-14.72c-13.36,16.43-30.66,31.56-58.86,31.28-27.82-.27-45.05-15.31-58.87-30.76-5.21,1.5-9.74-.52-14.72,0Zm127.72,19.09c-9.72,9.19-19.6,16.23-35.21,20.15-31.15,7.82-58.12-6.51-72.53-20.15-3.28-3.1-6.65-9.12-13.14-8.48-.18,3.41,3.04,6.54,5.26,9.02,7.16,7.99,16.87,15.04,26.8,19.61,26.54,12.25,59.79,7.58,80.41-6.89,8.7-6.09,17.06-13.7,21.55-22.8-5.63-1.74-10.07,6.64-13.14,9.54Z"/><path class="d" d="m149.39,107.86c3.03,1.97,3.84,4.07,3.68,6.89-.16,2.93-3.27,4.85-3.15,6.89.31,5,7.18,4.78,8.93,9.54,2.31,7.7-4.31,7.84-4.2,12.2.1,3.98,7.37,6.37,11.04,8.48,7.94,4.58,14.68,7.77,15.24,19.09-5.13-5.13-11.6-13.34-21.55-14.31-10.36-1.01-20.86,5.27-20.5,13.25.45,9.83,19.56,12.31,24.17,3.72-4.14-3.59-4.48,1.7-8.93,1.58-5.68-.15-7.72-6.39-5.26-10.07,4.2-6.27,19.29-2.87,23.65,2.65,11.49,14.54-11.15,23.61-28.38,21.74-8.23-.9-21.25-6.84-23.13-15.37-1.55-7.06,1.74-12.7,4.73-15.91,3.78-4.06,7.22-4.35,14.19-6.89-6.96-8.24,2.55-14.81,7.36-19.09-.13-4.36-3.59-4.69-3.68-7.95-.16-5.75,8.93-9.76,5.78-16.44Z"/><path class="e" d="m39.12,142.92c-3.87,0-7.01,3.17-7.01,7.08s3.14,7.07,7.01,7.07,7.01-3.16,7.01-7.07-3.14-7.08-7.01-7.08Zm0,10.65c-1.95,0-3.54-1.6-3.54-3.57s1.59-3.57,3.54-3.57,3.54,1.6,3.54,3.57-1.58,3.57-3.54,3.57Z"/><path class="e" d="m260.88,142.92c-3.87,0-7.01,3.17-7.01,7.08s3.14,7.07,7.01,7.07,7.02-3.16,7.02-7.07-3.14-7.08-7.02-7.08Zm0,10.65c-1.95,0-3.54-1.6-3.54-3.57s1.59-3.57,3.54-3.57,3.54,1.6,3.54,3.57-1.58,3.57-3.54,3.57Z"/><path class="e" d="m50.92,186.84c.73.87,2.01,2.71,3.08,4.58,1.29,2.26,1.88,3.76,1.88,5.39.05,1.49-.59,2.94-2.08,3.81-1.42.82-3.23.75-4.99-.69l-.05.03c.6,2.15-.03,4.37-2.1,5.57-1.49.87-3.03.87-4.44.33-1.62-.64-3.29-2.32-5.16-5.57-1.05-1.82-1.7-3.25-2.06-4.14l15.91-9.31Zm-11.28,11.5c.16.39.41.83.77,1.46.96,1.68,2.46,2.77,4.17,1.77,1.61-.94,1.41-2.8.35-4.64l-.73-1.26-4.57,2.67Zm7.19-4.2l.7,1.21c1.12,1.96,2.5,2.52,3.71,1.82,1.23-.72,1.33-2.04.37-3.71-.47-.82-.79-1.26-1-1.52l-3.77,2.21Z"/><path class="e" d="m61.76,204.02l-8.62,6.49c-2.6,1.96-3.16,3.96-1.89,5.69,1.33,1.79,3.31,1.84,5.98-.17l8.62-6.49,2.53,3.42-8.42,6.34c-4.63,3.49-8.58,2.79-11.51-1.16-2.82-3.82-2.36-7.64,2.41-11.22l8.37-6.32,2.53,3.42Z"/><path class="e" d="m70.07,215.27c1.1.84,2.61,2.17,4.18,3.84,1.92,2.02,2.97,3.73,3.13,5.43.15,1.45-.39,2.83-1.63,4.03-1.7,1.65-4.06,1.56-5.6.79l-.06.06c.52,1.32.14,2.7-.78,4.24-1.14,1.92-2.51,4.04-2.79,4.81l-3-3.15c.21-.59.97-1.99,2.26-3.98,1.34-2.04,1.22-3.05.03-4.35l-.86-.91-5.31,5.14-2.91-3.06,13.33-12.91Zm-2.91,8.68l1.16,1.21c1.46,1.54,3.09,1.71,4.27.57,1.22-1.18,1.06-2.65-.29-4.07-.71-.75-1.15-1.13-1.43-1.3l-3.71,3.6Z"/><path class="e" d="m76.07,240.24l-4.03,2.98-3.42-2.72,16.07-11.29,4.36,3.47-7,18.48-3.61-2.86,1.84-4.71-4.21-3.34Zm5.69.45l1.54-3.88c.43-1.09,1.02-2.4,1.49-3.46l-.04-.03c-.91.7-2,1.66-2.91,2.33l-3.34,2.46,3.26,2.58Z"/><path class="e" d="m94.8,237.23c1.25.45,2.92,1.22,5.17,2.51,2.27,1.3,3.64,2.67,4.24,4.17.6,1.43.51,3.19-.39,4.79-.91,1.61-2.2,2.71-3.69,3.05-1.92.45-4.1-.06-6.27-1.3-.48-.29-.91-.55-1.2-.82l-3.32,5.9-3.65-2.09,9.12-16.21Zm-.55,9.55c.27.25.62.48,1.17.8,1.96,1.12,3.73.82,4.66-.84.85-1.52.32-3.02-1.54-4.08-.73-.41-1.26-.65-1.57-.74l-2.73,4.86Z"/><path class="e" d="m112.01,245.9l-2.48,6.82,6.55,2.42,2.47-6.82,3.97,1.47-6.44,17.74-3.96-1.47,2.69-7.42-6.55-2.41-2.69,7.42-3.96-1.47,6.44-17.74,3.96,1.47Z"/><path class="e" d="m126.81,265l-2.15,4.54-4.3-.77,8.89-17.6,5.47.98,2.46,19.64-4.52-.81-.58-5.03-5.28-.95Zm5.23-2.3l-.45-4.15c-.13-1.16-.21-2.61-.3-3.76h-.05c-.47,1.05-.99,2.4-1.48,3.43l-1.79,3.75,4.07.73Z"/><path class="e" d="m151.36,253.41l.31,10.85c.09,3.27,1.39,4.89,3.53,4.83,2.22-.06,3.4-1.67,3.3-5.03l-.31-10.84,4.22-.12.3,10.59c.17,5.83-2.66,8.69-7.56,8.83-4.72.14-7.55-2.44-7.72-8.44l-.3-10.54,4.22-.13Z"/><path class="e" d="m168.57,271.38l-3.65-18.54,4.85-.97,5.15,6.02c1.48,1.74,3,3.82,4.26,5.75h.05c-.73-2.41-1.3-4.9-1.86-7.7l-1.06-5.39,3.82-.77,3.65,18.54-4.36.87-5.33-6.36c-1.48-1.76-3.18-3.91-4.48-5.9l-.11.02c.62,2.45,1.19,5.05,1.79,8.07l1.1,5.59-3.82.77Z"/><path class="e" d="m186.75,247.35l5.99,17.9-4,1.36-5.99-17.9,4.01-1.36Z"/><path class="e" d="m201.58,261.64l-13.55-14.39,4.18-2.04,5.5,6.21c1.56,1.76,3,3.43,4.41,5.35l.08-.04c-.56-2.25-1-4.53-1.35-6.75l-1.32-8.32,4.05-1.97,2.45,19.79-4.45,2.17Z"/><path class="e" d="m219.59,241.62l-5.68,3.94,2.52,3.7,6.34-4.4,1.96,2.89-9.82,6.81-10.6-15.58,9.51-6.58,1.96,2.89-6.02,4.18,2.2,3.23,5.69-3.93,1.95,2.86Z"/><path class="e" d="m215.84,231.11c.86-1.09,2.23-2.57,3.92-4.11,2.06-1.88,3.78-2.89,5.48-3,1.44-.11,2.79.47,3.95,1.76,1.59,1.76,1.44,4.14.64,5.67l.05.06c1.33-.5,2.68-.07,4.19.9,1.87,1.2,3.93,2.66,4.68,2.95l-3.21,2.94c-.58-.23-1.94-1.03-3.88-2.39-1.97-1.41-2.99-1.32-4.3-.15l-.93.85,4.95,5.5-3.11,2.84-12.42-13.81Zm8.52,3.18l1.24-1.13c1.56-1.43,1.78-3.07.68-4.29-1.14-1.27-2.6-1.14-4.04.18-.76.7-1.16,1.13-1.32,1.4l3.45,3.84Z"/><path class="e" d="m238.05,229.51c1.17-.47,2.77-1.44,3.95-2.82,1.27-1.49,1.33-2.8.41-3.61-.88-.77-1.98-.53-4.03.68-2.88,1.65-5.53,2.08-7.59.28-2.42-2.1-2.49-5.76.38-9.11,1.39-1.64,2.71-2.53,3.84-3.03l1.95,2.95c-.75.32-2.03,1.01-3.22,2.39-1.2,1.4-1.13,2.64-.41,3.27.91.79,1.98.35,4.27-.92,3.09-1.72,5.39-1.75,7.39,0,2.39,2.07,2.84,5.65-.52,9.58-1.4,1.64-3.22,2.87-4.35,3.29l-2.07-2.95Z"/><path class="e" d="m238.8,205.49l15.13,11.14-2.49,3.44-15.13-11.14,2.49-3.44Z"/><path class="e" d="m245.6,201.7l-2.65,4.34-3.03-1.88,7.56-12.36,3.03,1.88-2.68,4.39,12.92,8.03-2.22,3.63-12.92-8.04Z"/><path class="e" d="m267.05,194.44l-6.93-3.31-12.53.62,2.08-4.43,4.88.21c1.48.06,2.56.11,3.86.23l.02-.05c-.88-.88-1.66-1.76-2.63-2.84l-3.26-3.67,2.03-4.33,7.23,10.34,7.06,3.37-1.8,3.85Z"/><path class="e" d="m53.47,100.83l2.36,1.3c2.27,1.24,2.75,3.08,1.43,5.51-1.29,2.39-3.31,2.83-6.05,1.32-1.11-.61-1.95-1.51-2.52-2.72-.56-1.2-.49-2.46.22-3.77l-1.85-1.02c-1.2,2.23-2.74,2.84-4.6,1.81-.88-.48-1.44-1.16-1.66-2.02-.21-.86-.09-1.73.39-2.61,1.26-2.34,3.08-2.85,5.44-1.56l4.35,2.39c.51-.57,1.9-1.01,4.18-1.31,2.27-.3,3.44-.5,3.5-.62.17-.31-.15-.67-.94-1.11l-11.79-6.47,1.72-3.19,13.1,7.2c1.98,1.08,2.46,2.56,1.46,4.42-.68,1.25-2.56,1.95-5.67,2.1-1.51.07-2.53.19-3.08.35Zm-10.71-1.38c-.47.86-.27,1.53.6,2.01.87.48,1.55.28,2.01-.58.47-.87.27-1.54-.61-2.03-.87-.48-1.53-.28-2,.59Zm9.75,7.49c1.14.64,1.91.59,2.3-.14.3-.56.14-1.02-.5-1.37l-3.24-1.78c-.69,1.28-.21,2.38,1.44,3.29Z"/><path class="e" d="m67.22,90.45l-9-7.36c-1.59,1.97-3.23,2.27-4.93.88-.66-.54-1.09-1.26-1.28-2.15-.19-.89.07-1.77.78-2.65,1.68-2.09,3.61-2.24,5.8-.45l5.56,4.54c-1.14-3.46-1.58-5.83-1.31-7.1-.8.28-1.66.05-2.6-.71-.82-.67-1.27-1.5-1.34-2.48-.07-.98.24-1.88.91-2.72,1.52-1.89,3.14-2.14,4.85-.74,1.24,1.01,1.73,2.12,1.45,3.3,1.15-.52,2.31-.31,3.49.65l6.8,5.57-2.27,2.82-6.71-5.49c-.88-.72-1.54-.81-1.97-.26-.47.58-.29,2.18.56,4.8.84,2.62,2,4.86,3.48,6.72l-2.27,2.83Zm-12.94-10.18c-.64.79-.57,1.5.21,2.13.78.64,1.48.56,2.11-.23.62-.78.55-1.49-.23-2.12-.78-.63-1.48-.56-2.1.22Zm7.05-8.78c-.67.84-.6,1.59.23,2.26.85.69,1.61.62,2.28-.22.68-.83.59-1.6-.26-2.29-.83-.68-1.57-.59-2.24.24Z"/><path class="e" d="m68.54,67.34c-.6-1.28-.67-2.67-.21-4.2.46-1.53,1.27-2.79,2.41-3.79,3.56-3.1,6.59-3.18,9.1-.25l8.22,9.59-2.73,2.37-8.21-9.59c-1.54-1.79-3.2-1.9-4.97-.35-.68.59-1.12,1.39-1.33,2.41-.21,1.01-.12,1.96.26,2.83l-2.53.99Z"/><path class="e" d="m96.07,55.71l-2.7-4.54c-1.5-2.51-3.37-3.09-5.63-1.72-2.05,1.25-2.77,2.91-2.16,5l-3.22.56c-.32-1.2,0-2.55.94-4.05.95-1.5,2.05-2.63,3.3-3.38,2.37-1.44,4.31-2.01,5.82-1.72,1.51.29,2.86,1.45,4.07,3.47l3.95,6.64c1.39,2.33,1,4.15-1.18,5.47-2.03,1.23-3.62.89-4.76-1.04-1.09-1.83-.56-3.4,1.58-4.7Zm2.21,4.26c.83-.5.98-1.19.45-2.08-.51-.84-1.17-1.02-2-.51-.84.51-1,1.18-.5,2.03.52.88,1.21,1.07,2.05.56Z"/><path class="e" d="m93.44,41.55c-2.72-.52-5.63-.02-8.74,1.49-1.93.94-3.8,2.26-5.59,3.94-.79-2.02-.84-3.92-.18-5.69.66-1.77,1.95-3.12,3.86-4.05,1.95-.95,3.97-.98,6.06-.09,2.09.9,3.62,2.36,4.59,4.39Zm-12.38,1.57c.74-.59,1.72-1.18,2.94-1.78,1.62-.79,3.29-1.27,5-1.44-1.43-1.59-3.24-1.86-5.43-.79-2.02.98-2.86,2.32-2.52,4.01Z"/><path class="e" d="m107.93,56.9l-3.86-11.01c-2.37.85-3.92.23-4.65-1.85-.29-.83-.29-1.67,0-2.51.29-.85.98-1.46,2.05-1.85,2.36-.84,4.01.07,4.95,2.75l1.67,4.79c-.64-6.41.63-10.19,3.8-11.31,1.07-.39,2.08-.35,3.02.12.95.47,1.65,1.37,2.13,2.73l4.64,13.26-3.4,1.21-4.43-12.65c-.56-1.59-1.18-2.26-1.86-2.02-1.1.39-1.77,2.52-2,6.39-.24,3.87.23,7.45,1.37,10.74l-3.44,1.22Zm-5.75-15.5c-.95.34-1.26.98-.93,1.94.33.95.97,1.25,1.92.91.95-.33,1.26-.98.93-1.93-.34-.95-.97-1.26-1.92-.92Z"/><path class="e" d="m130.59,41.07l1.94-.28.29,2.09-2.07.3c-1.42.21-2,1.27-1.72,3.18l.26,1.81,5.17-.75c1.41-.2,2.01-.97,1.83-2.3l-1.96-13.76,3.57-.52,2.04,14.32c.37,2.58-.75,4.05-3.34,4.42l-10.52,1.53-.65-4.55c-.14-.98.05-1.87.6-2.69.53-.82,1.27-1.33,2.22-1.52-1.07.11-2-.18-2.78-.87-.78-.69-1.25-1.62-1.42-2.78l-.22-1.56c-.18-1.25.06-2.33.71-3.22.65-.88,1.6-1.42,2.85-1.6,2.21-.32,3.49.68,3.82,3.01.29,2.05-.64,3.24-2.8,3.55-.34.05-.6.06-.78.02.24,1.7,1.24,2.43,2.98,2.17Zm-2.96-6.91c-.97.14-1.38.7-1.24,1.67.14,1.01.7,1.44,1.67,1.3.96-.14,1.36-.71,1.22-1.72-.15-.98-.69-1.4-1.64-1.25Z"/><path class="e" d="m142.45,34.91c.4-1.35,1.28-2.45,2.63-3.27,1.36-.83,2.79-1.23,4.31-1.2,4.69.09,7.01,2.07,6.93,5.94l-.24,12.67-3.6-.07.23-12.67c.05-2.36-1.12-3.56-3.47-3.61-.89-.02-1.75.28-2.58.9-.83.61-1.39,1.37-1.69,2.28l-2.54-.96Z"/><path class="e" d="m165.03,43.39c2.63.42,3.78,1.72,3.44,3.89-.35,2.18-1.63,3.1-3.87,2.74-2.75-.44-3.77-2.79-3.11-7.06.69-4.38,2.73-6.31,6.12-5.77,1.01.16,1.89.59,2.64,1.28.75.69,1.34,1.49,1.77,2.42.43.92.64,1.44.62,1.54l.52-3.28c.44-2.84-.65-4.47-3.29-4.88-3.04-.49-5.11.03-6.2,1.55l-2.02-1.75c1.51-2.09,4.3-2.81,8.35-2.17,2.77.44,4.66,1.34,5.69,2.68,1.01,1.35,1.33,3.27.93,5.79l-1.75,11.12-3.56-.57.23-1.46c.24-1.51-.07-3.49-.92-5.97-.86-2.48-2-3.83-3.45-4.06-.99-.16-1.63.68-1.92,2.51l-.23,1.46Zm.24,1.83c-.98-.16-1.56.27-1.71,1.27-.16,1.02.25,1.61,1.24,1.76.97.15,1.54-.28,1.7-1.29.16-1-.25-1.58-1.23-1.74Z"/><path class="e" d="m186.58,24.16l-.95,3.78c-.48.44-1.5.88-3.06,1.29-1.55.41-3.38.36-5.46-.18-4.58-1.18-6.52-3.16-5.82-5.94.25-.95.74-1.66,1.49-2.1.74-.44,1.59-.54,2.54-.29.84.22,1.52.64,2.05,1.29.53.65.68,1.45.44,2.41-.25.98-.68,1.66-1.3,2.03,1.93.66,3.79.78,5.56.34,1.78-.44,3.28-1.32,4.51-2.63Zm-11.65-1.94c-1.02-.26-1.66.13-1.93,1.18-.28,1.09.12,1.78,1.2,2.06,1.05.27,1.71-.12,1.98-1.19.27-1.08-.15-1.76-1.25-2.05Z"/><path class="e" d="m188.05,45.94l1.84.68-.71,1.98-1.97-.72c-1.35-.49-2.35.16-3,1.98l-.62,1.73,4.92,1.8c1.33.48,2.23.1,2.68-1.17l4.7-13.07,3.38,1.24-4.89,13.6c-.87,2.44-2.55,3.22-5.02,2.31l-9.99-3.65,1.55-4.32c.33-.93.93-1.63,1.78-2.09.86-.47,1.75-.57,2.67-.29-1-.41-1.68-1.11-2.05-2.09-.37-.98-.35-2.02.05-3.13l.53-1.48c.43-1.2,1.14-2.03,2.13-2.5.99-.47,2.08-.49,3.26-.06,2.1.78,2.76,2.26,1.96,4.47-.7,1.95-2.08,2.55-4.12,1.81-.32-.11-.56-.23-.7-.35-.58,1.62-.04,2.73,1.61,3.34Zm.62-7.5c-.92-.34-1.55-.04-1.88.89-.34.95-.06,1.6.86,1.93.91.33,1.54.02,1.87-.94.34-.92.05-1.56-.86-1.89Z"/><path class="e" d="m217.31,50.74l3.05,1.94-8.02,12.85c-.43.69-1.04,1.18-1.82,1.46-.78.27-1.61.13-2.5-.44l-11.17-7.1,1.29-2.06,1.87,1.18,4.88-7.82c-2.13-1.36-2.61-2.97-1.45-4.83.47-.74,1.12-1.27,1.96-1.56.84-.29,1.74-.14,2.69.47,2.27,1.44,2.65,3.36,1.15,5.77l-6.18,9.91,4.46,2.83c.93.59,1.76.31,2.48-.86l7.32-11.73Zm-10.15-4.29c-.84-.53-1.53-.37-2.06.48-.53.85-.37,1.55.46,2.08.86.55,1.56.4,2.1-.46.53-.85.37-1.55-.5-2.11Z"/><path class="e" d="m197.07,69.46c-1.87-1.5-2.13-3.11-.77-4.83,1.36-1.72,2.94-1.86,4.73-.41,1.74,1.4,1.75,3.18.04,5.34l-1.65,2.09,2,1.61,4.15-5.24,2.55,2.05-5.62,7.12-7.06-5.67,1.63-2.05Zm2.54-4.24c-.7-.57-1.39-.42-2.07.43-.64.82-.62,1.51.08,2.08.72.57,1.39.45,2.04-.37.67-.86.65-1.57-.06-2.14Z"/><path class="e" d="m223.85,71.62l1.76-1.89c.69-.74.99-1.53.9-2.35-.08-.82-.62-1.93-1.59-3.32-.98-1.39-2-2.59-3.04-3.59l-.25-.21c1.08-1.06,2.4-1.52,3.95-1.4,1.55.12,2.92.76,4.11,1.89.49.47,1.11,1.29,1.85,2.46.74,1.17,1.36,2,1.85,2.47.43.41,1.05.56,1.85.44l-.63,2.35c-1.22-.15-2.1-.48-2.63-.98-.51-.48-1.12-1.34-1.83-2.59-.71-1.26-1.34-2.16-1.89-2.68-.91-.86-1.79-1.1-2.67-.71,1.28,1.21,2.37,2.94,3.29,5.19.91,2.25.93,3.85.04,4.79l-4.13,4.43c-1.86,1.99-3.75,2.06-5.66.24-1.64-1.56-1.76-3.09-.36-4.59,1.58-1.69,3.27-1.67,5.08.06Zm-3.49,3.27c.71.68,1.42.64,2.11-.11.68-.71.65-1.41-.06-2.09-.71-.67-1.4-.65-2.07.07-.7.75-.7,1.46.02,2.14Z"/><path class="e" d="m241.94,81.75l-13.46,4.88-2.15-2.96,9.48-7.02c-1.49-2.05-1.38-3.71.33-4.97.81-.6,1.65-.81,2.52-.64.88.18,1.62.69,2.23,1.53,1.53,2.09,1.19,3.94-.98,5.54l-4.84,3.59,9.8-3.58,1.33,1.82-6.22,8.5,8.03-5.95,2.13,2.93-14.64,10.84-2.11-2.91,8.56-11.61Zm-2.49-8.16c-.58-.81-1.28-.92-2.08-.33-.8.6-.92,1.29-.35,2.07.59.81,1.29.91,2.09.32.8-.59.9-1.28.34-2.06Z"/><path class="e" d="m248.57,91.47c1.37-.28,2.73,0,4.09.81,1.36.82,2.39,1.92,3.06,3.28,2.12,4.23,1.48,7.21-1.95,8.96l-11.21,5.72-1.63-3.24,11.21-5.72c2.09-1.06,2.6-2.66,1.54-4.78-.4-.8-1.07-1.42-1.99-1.88-.92-.45-1.86-.6-2.79-.44l-.33-2.71Z"/></g></svg>